<svg width="50" height="49" viewBox="0 0 50 49" fill="none" xmlns="http://www.w3.org/2000/svg">
<path d="M25 0C11.1996 0 0 10.8496 0 24.2188C0 37.5879 11.1996 48.4375 25 48.4375C38.8004 48.4375 50 37.5879 50 24.2188C50 10.8496 38.8004 0 25 0ZM35.1512 35.6348C34.7278 35.6348 34.4657 35.5078 34.0726 35.2832C27.7823 31.6113 20.4637 31.4551 13.2359 32.8906C12.8427 32.9883 12.3286 33.1445 12.0363 33.1445C11.0585 33.1445 10.4435 32.3926 10.4435 31.6016C10.4435 30.5957 11.0585 30.1172 11.8145 29.9609C20.0706 28.1934 28.5081 28.3496 35.7056 32.5195C36.3206 32.9004 36.6835 33.2422 36.6835 34.1309C36.6835 35.0195 35.9677 35.6348 35.1512 35.6348V35.6348ZM37.8629 29.2285C37.3387 29.2285 36.9859 29.0039 36.623 28.8184C30.3226 25.2051 20.9274 23.75 12.5706 25.9473C12.0867 26.0742 11.8246 26.2012 11.371 26.2012C10.2923 26.2012 9.41532 25.3516 9.41532 24.3066C9.41532 23.2617 9.93952 22.5684 10.9778 22.2852C13.7802 21.5234 16.6431 20.957 20.8367 20.957C27.379 20.957 33.6996 22.5293 38.6794 25.4004C39.496 25.8691 39.8185 26.4746 39.8185 27.3242C39.8085 28.3789 38.9617 29.2285 37.8629 29.2285V29.2285ZM40.9879 21.7871C40.4637 21.7871 40.1411 21.6602 39.6875 21.4062C32.5101 17.2559 19.6774 16.2598 11.371 18.5059C11.0081 18.6035 10.5544 18.7598 10.0706 18.7598C8.73992 18.7598 7.72177 17.7539 7.72177 16.4551C7.72177 15.127 8.56855 14.375 9.47581 14.1211C13.0242 13.1152 16.996 12.6367 21.3206 12.6367C28.6794 12.6367 36.3911 14.1211 42.0262 17.3047C42.8125 17.7441 43.3266 18.3496 43.3266 19.5117C43.3266 20.8398 42.2177 21.7871 40.9879 21.7871V21.7871Z" fill="white"/>
</svg>
